<svg id="playground-logo" data-name="Layer 1" xmlns="http://www.w3.org/2000/svg" viewBox="0 0 513.08 185.78"><title>The Playground Theatre Logo</title><path id="_Path_" data-name="&lt;Path&gt;" class="play" d="M200.77,135.26c0.22,1.34.42,2.53,0.6,3.72a7,7,0,0,1,0,1.18,0.41,0.41,0,0,1-.13.3c-0.64.09-.48,0.56-0.49,1s-0.08.6-.09,0.9a4.53,4.53,0,0,0,.24,2.06,3.37,3.37,0,0,1,.24,1.05,8.27,8.27,0,0,1-.11,3.85,1.73,1.73,0,0,0,0,1.33,4.27,4.27,0,0,1,.23,2.14c-0.38,3.52-.72,7.05-1.12,10.57a6.82,6.82,0,0,1-.79,2.87,0.55,0.55,0,0,0-.06.42,6.35,6.35,0,0,1-.1,5c1.11,0.57.93,1.65,1.17,2.7,0.24-.22.44-0.37,0.61-0.55q7-7.44,14-14.89c3.3-3.52,6.58-7,10.17-10.27,1.08-1,2.22-1.88,3.37-2.76a13.35,13.35,0,0,1,1.95-1.16,1.85,1.85,0,0,1,1.48-.18c0.63,1.44.71,2.08,0.53,4.47a12,12,0,0,0-6.34,5.34,1.87,1.87,0,0,0,2.53.8c1.28-.46,2.54-1,3.78-1.49l2.19,1a1.45,1.45,0,0,1-.25,1.29c-0.63.89-1.21,1.83-1.91,2.65-2.64,3.09-5.31,6.14-8,9.2-1.92,2.19-3.88,4.34-5.76,6.56a26.36,26.36,0,0,0-1.74,2.65,2.27,2.27,0,0,1-.35.4c-0.77.73-1.61,1.39-2.31,2.18-2.05,2.35-4,4.75-6.07,7.13a2.88,2.88,0,0,1-.62.66A6.77,6.77,0,0,0,205,190.8a5.47,5.47,0,0,1-1.23,1.88c-2.74,2.75-5.44,5.53-8.22,8.24a31.85,31.85,0,0,1-3.4,2.73,15,15,0,0,1-1.93,1c-0.37-1.1,0-2.4-1.21-3a25.49,25.49,0,0,1,.68-4.61,2.63,2.63,0,0,1,.09-0.35,4.05,4.05,0,0,0-.1-2.65,22.58,22.58,0,0,1-1.17-6,0.81,0.81,0,0,1,.35-1,0.31,0.31,0,0,0,.1-0.24c0-.78,0-1.56,0-2.23a1,1,0,0,0-.17-0.16c-1.72-.37-1.93-0.62-1.93-2.37q0-2.32,0-4.64a1.64,1.64,0,0,1,.3-1.2,0.77,0.77,0,0,0,0-.66,5.89,5.89,0,0,1-.2-3c0.14-1.42.28-2.84,0.35-4.26a3.54,3.54,0,0,0-.26-1.32,2.45,2.45,0,0,1,0-1.68c0.22-.67.58-1.36-0.13-2a1.28,1.28,0,0,1,0-.79c0.1-.87.27-1.74,0.31-2.62,0.08-2.06.11-4.12,0.15-6.18a17.72,17.72,0,0,0,0-1.91c-0.08-1-.24-1.9-0.37-2.92,0.85-.14,1-0.82.89-1.61-0.14-1.2-.28-2.4-0.42-3.6a4.65,4.65,0,0,1,0-.9c0.4-4.59.51-9.2,0.49-13.81a2.84,2.84,0,0,1,.46-1.34l-0.3-1a1.27,1.27,0,0,1,.16-1.44,0.56,0.56,0,0,0,.06-0.5,10.11,10.11,0,0,1-.37-4.31c0.18-4.63.36-9.27,0.64-13.9a84.31,84.31,0,0,1,1.24-11.29c0.09-.47.22-0.94,0.36-1.41a2.88,2.88,0,0,1,1.06-1.63,22.26,22.26,0,0,0,1.66-1.67c0.6-.55,1.24-1.06,1.89-1.56a0.72,0.72,0,0,1,1,0c1.77,1.43,3.55,2.84,5.32,4.26a2.06,2.06,0,0,1,.82,1.91c-0.07.84,0,1.69,0,2.58l-1,.2c0.1,0.92.21,1.84,0.3,2.76s0.16,1.63.21,2.44a1.14,1.14,0,0,1-.15.78,1.12,1.12,0,0,0-.14,1.24,13.85,13.85,0,0,1,.29,2.05c0,1.09,0,2.18,0,3.31l-1,.2-0.05.75,1,0.13c0,0.24.06,0.44,0.08,0.65,0.14,2,.28,4,0.43,6.07a11.12,11.12,0,0,1-.54,4.84,0.86,0.86,0,0,0,0,.6,6.85,6.85,0,0,1,.37,3.49c-0.12,1.78-.34,3.55-0.5,5.33a3.61,3.61,0,0,0,.08.79c0.06,0.45.14,0.89,0.19,1.34S201.3,135.26,200.77,135.26Z" transform="translate(-130.19 -58.28)"/><path id="_Path_2" data-name="&lt;Path&gt;" class="play" d="M305.51,115.3c0.16,1.24-.73,2.2-1,3.44,2.71,0.28,3.84,2.29,4.72,4.49a1.24,1.24,0,0,0,1.65-.55,102.51,102.51,0,0,0,8.39-12.53,1.19,1.19,0,0,1,.31-0.44,7.23,7.23,0,0,0,2.08-2.5c1.67-2.81,3.28-5.66,4.93-8.49a9.27,9.27,0,0,1,.93-1.2c0.5-.61,1.06-1.17,1.53-1.8q2-2.73,4-5.51a1.74,1.74,0,0,1,1.15-.78c1-.19,1.94-0.44,3-0.7,0.19,0.69.39,1.35,0.54,2a1.62,1.62,0,0,1-.37,1.27c-1.22,1.84-2.43,3.7-3.61,5.57a20.35,20.35,0,0,0-1,2l0.85,0.27a12.44,12.44,0,0,1,1.62.57,2.46,2.46,0,0,1,1.14,3.46,22.07,22.07,0,0,1-1.45,2.52c-2.49,3.66-5,7.29-7.53,10.93a5.37,5.37,0,0,0-.54.94,2.92,2.92,0,0,0-.32,1.13,3.75,3.75,0,0,0,.41,1.11,4.7,4.7,0,0,0-2.35,2.86,4,4,0,0,0-.38,1.85c0,0.57,0,1.15,0,1.76a3.71,3.71,0,0,0-2.56,2.55c-0.59,1.52-1,3.1-1.5,4.66a4.53,4.53,0,0,1-.75,1.6,6.14,6.14,0,0,0-1,2c-0.56,1.92-1,3.86-1.51,5.8a1.25,1.25,0,0,1-.61,1,1.36,1.36,0,0,0-.62,1.16,0.6,0.6,0,0,0,.15.47,2.9,2.9,0,0,1,.86,1.67c0.23,0.9.39,1.82,0.59,2.76-0.76.23-1-.52-1.56-0.63a3.12,3.12,0,0,0-.07.57c0.13,2.39.25,4.78,0.44,7.17A4.44,4.44,0,0,1,316,160a2.44,2.44,0,0,0,0,1.68c0.31,1.17.58,2.35,0.87,3.56a3.93,3.93,0,0,0-.56.45,1.49,1.49,0,0,0-.39,1.66,13.15,13.15,0,0,1,1,5c0,0.73.09,1.45,0.17,2.17a3.27,3.27,0,0,0,.61,1.68,2.08,2.08,0,0,1,.29,1.11,10.94,10.94,0,0,0,.43,3.22,3,3,0,0,1,0,1.79,8.65,8.65,0,0,0-.36,3,2.19,2.19,0,0,0,.37.14,1.37,1.37,0,0,1,1.19,1.4c0.05,1,0,2,0,3-0.77.12-.77,0.12-1.21-0.75-1.1.82-2.19,1.63-3.27,2.46a2.92,2.92,0,0,0-.35.52,27.1,27.1,0,0,1-1.73,2.09,1.15,1.15,0,0,1-1.87-.1,3.85,3.85,0,0,0-2.8-1.35,9.46,9.46,0,0,1,0-1.06,1.68,1.68,0,0,0-.46-1.33,17.71,17.71,0,0,1-1.58-1.74c-0.82-1.17-1.54-2.43-1-3.95a5.41,5.41,0,0,0,.24-2.68c-0.16-1.08-.27-2.16-0.41-3.25a0.71,0.71,0,0,1,.22-0.73,2,2,0,0,0,.32-0.68c-0.26-.07-0.42-0.12-0.59-0.15a1.64,1.64,0,0,1-1.62-2c0.07-1.06.24-2.11,0.42-3.15s0.38-1.9.59-2.91a1.83,1.83,0,0,1-1-2.08c0.17-3.3.34-6.6,0.54-9.89a5.92,5.92,0,0,1,.39-1.67,0.76,0.76,0,0,0-.1-0.91,0.77,0.77,0,0,1-.22-0.82c0.14-1.14.35-2.28,0.38-3.43a33.8,33.8,0,0,0-.2-3.44c0-.63-0.13-1.27-0.21-1.9a0.46,0.46,0,0,1,.25-0.59,0.67,0.67,0,0,0,.2-0.53,9.17,9.17,0,0,0-.77-4.24,16,16,0,0,0-1.58-3.06,0.59,0.59,0,0,1-.09-0.16c-1.23-3.1-2.87-6-4.15-9.07a48,48,0,0,0-2.38-5.3c-1-1.67-2.24-3.16-3.34-4.75-0.82-1.2-1.62-2.42-2.34-3.68-0.63-1.1-.56-1.53.37-2.4a31.37,31.37,0,0,1,2.69-2.16,1.81,1.81,0,0,1,.85-0.22,10.63,10.63,0,0,1,1.08,0,9.68,9.68,0,0,0-.38-1.23c-0.95-2-1.84-4.09-2.92-6.06a4.78,4.78,0,0,0-1.59-2,1,1,0,0,1-.37-0.6,4.58,4.58,0,0,1,0-2.6,2.49,2.49,0,0,1,1.27-1.48,4.75,4.75,0,0,1,2.64-.54,1.77,1.77,0,0,1,1.07.58,9.74,9.74,0,0,1,1.21,1.8,40,40,0,0,1,2.51,6.62,11.9,11.9,0,0,0,.79,1.92c1.46,2.76,2.94,5.51,4.42,8.26l0.17,0.32C304.27,114.93,304.27,114.93,305.51,115.3Z" transform="translate(-130.19 -58.28)"/><path id="_Compound_Path_" data-name="&lt;Compound Path&gt;" class="play" d="M287.68,128a6.48,6.48,0,0,1-1.74-.5,5.87,5.87,0,0,1-1.14-1.33l-0.39.79h-0.95l0-.89c3.47-1.07,5.58-3.83,5.16-7.23a11.24,11.24,0,0,0-9.51,3.07,1.42,1.42,0,0,1-1.64.43c-0.12-.66-0.25-1.31-0.36-2Q275,107.63,272.1,95a33.94,33.94,0,0,1-1.21-6.88,8.92,8.92,0,0,0-.69-2.8,3,3,0,0,0-2.55-2.07,1.29,1.29,0,0,1-.31-0.14l0.43-1.61a14.34,14.34,0,0,1-1.69-.26,14.84,14.84,0,0,1-1.58-.62c-0.54.28-.85,1.07-1.71,0.68s-0.75-1-1-1.65c-0.42.19-.8,0.39-1.2,0.53a4.61,4.61,0,0,1-1.21.32A4.92,4.92,0,0,0,255.3,83,10.57,10.57,0,0,0,254,86.51c-0.07.37-.16,0.74-0.26,1.2-0.33-.26-0.55-0.46-0.8-0.63a1.13,1.13,0,0,0-1.76.48,13.85,13.85,0,0,0-.62,1.9c-0.8,3.48-1.56,7-2.38,10.45a4.93,4.93,0,0,0,.14,3.11,0.5,0.5,0,0,1,0,.18,5.17,5.17,0,0,0-.85,1.77c-0.26,1.24-.4,2.51-0.59,3.77a1.19,1.19,0,0,0,.3,1.24,1.06,1.06,0,0,1,.07.55l-0.95.19a0.9,0.9,0,0,0,.06.41,1.2,1.2,0,0,1,.15,1.41c-0.69,2.82-1.39,5.65-2.06,8.48a7.05,7.05,0,0,0,0,4.55,0.89,0.89,0,0,1-.12.76,20.68,20.68,0,0,0-.7,2.05,0.41,0.41,0,0,0,0,.34c0.53,0.3.26,0.74,0.2,1.13s-0.17,1-.29,1.52c-0.47,2-.65,4-1.64,5.83a2,2,0,0,0-.13.62c-0.08.48-.13,1-0.23,1.43a12.54,12.54,0,0,1-1.69,4.48,5.15,5.15,0,0,1-3.69,2.41l-0.73.13v2.62l1.25,0.84a4,4,0,0,1,1.88,4.44c-0.3,1.64-.42,3.31-0.66,5-0.57,4-1.11,8-1.75,12.05-0.37,2.36-.9,4.69-1.37,7.07l-0.47.06c-0.06.25-.14,0.51-0.19,0.78-0.75,3.8-1.46,7.62-2.25,11.41a25.12,25.12,0,0,0-.23,4.76c0.75,0.31,1-.46,1.44-0.54a2.55,2.55,0,0,0,.64.62,0.79,0.79,0,0,0,1.1-.51c0.3-.69.54-1.41,0.82-2.17a10.48,10.48,0,0,1,1.13.36,1,1,0,0,1,.53.45,7,7,0,0,1,.8,2.95,6.45,6.45,0,0,0,0,1.54,1.12,1.12,0,0,0,1.29,1.11c0.33,0,.67,0,1,0,1.56,0,1.6,0,2-1.49,1-3.37,2-6.74,2.87-10.14a12.91,12.91,0,0,1,2.18-5,7.54,7.54,0,0,0,.61-1,23.81,23.81,0,0,0,2.59-6.38,4,4,0,0,0,0-2.58,3,3,0,0,1-.12-1.87c0.28-1.27.57-2.54,0.82-3.82a1.76,1.76,0,0,0,0-1,4.19,4.19,0,0,1,0-2.9,6.08,6.08,0,0,1,2.22-3.34c1-.76,2.11-1.42,3.17-2.11a5.22,5.22,0,0,1,.76-0.32l0.52,3.56h2.06c0.23-.57.43-1.07,0.64-1.58a15.45,15.45,0,0,1,2.4-4.05,6.92,6.92,0,0,1,3.15-2.22,3.26,3.26,0,0,1,1.81-.23,1.31,1.31,0,0,1,.09.23,117.64,117.64,0,0,0,2,11.92,0.69,0.69,0,0,1,0,.52c-0.58.57-.28,1.15-0.11,1.77,0.43,1.58.82,3.16,1.21,4.75a0.94,0.94,0,0,1,0,.69c-0.73.67-.32,1.28,0,1.92a2.17,2.17,0,0,1,.21.67c0.43,3.06.79,6.13,1.3,9.18a38.26,38.26,0,0,0,1.26,5.11c0.49,1.55.71,1.59,2.24,1.13,0.69-.2,1.38-0.37,2.08-0.55,0.23,0.46.38,0.83,0.59,1.16a17.89,17.89,0,0,0,1.6,2.3,5.46,5.46,0,0,0,1.58,1,0.8,0.8,0,0,0,.92-0.18,8.53,8.53,0,0,0,3.31-7.67c-0.11-1-.29-2-0.44-3.06q-1-6.7-1.9-13.41-0.61-4.32-1.24-8.64a0.94,0.94,0,0,0-.18-0.57,1,1,0,0,1-.58-1.1c-0.46-3.58-1-7.15-1.37-10.73-0.28-2.44-.42-4.89-0.62-7.34,0-.32,0-0.64,0-1l2-.1c0.24-.67-0.78-0.93-0.26-1.59l0.87,0.6c0-.33.05-0.56,0.05-0.79,0-.88,0-1.76,0-2.64a5.49,5.49,0,0,1,1.25-3.53,8,8,0,0,1,2.58-2.27,1.75,1.75,0,0,0,1-2.06C287.72,128.26,287.7,128.14,287.68,128ZM264,129.75c-2,.57-4,1.1-4.34,3.62l-3-.83a2.35,2.35,0,0,1,0-.54c0.89-4.64,1.77-9.27,2.69-13.9,0.19-.94.6-1.84,0.82-2.78a2.86,2.86,0,0,0,0-1.41,5,5,0,0,1,0-2.84,15.43,15.43,0,0,0,.21-1.71,0.82,0.82,0,0,1,.28-0.57c0.38-.06.37,0.3,0.41,0.56,0.36,1.9.74,3.8,1.07,5.71q0.91,5.33,1.75,10.66A16.15,16.15,0,0,1,264,129.75Z" transform="translate(-130.19 -58.28)"/><rect id="_Rectangle_" data-name="&lt;Rectangle&gt;" class="play" x="16.72" y="33.71" width="4.04" height="113.29" rx="2.02" ry="2.02"/><rect id="_Rectangle_2" data-name="&lt;Rectangle&gt;" class="play" y="33.71" width="4.04" height="113.29" rx="2.02" ry="2.02"/><rect id="_Rectangle_3" data-name="&lt;Rectangle&gt;" class="play" x="2.24" y="38.09" width="16.72" height="3.53"/><rect id="_Rectangle_4" data-name="&lt;Rectangle&gt;" class="play" x="2.24" y="50.72" width="16.72" height="3.53"/><rect id="_Rectangle_5" data-name="&lt;Rectangle&gt;" class="play" x="2.24" y="63.35" width="16.72" height="3.53"/><rect id="_Rectangle_6" data-name="&lt;Rectangle&gt;" class="play" x="2.24" y="75.98" width="16.72" height="3.53"/><rect id="_Rectangle_7" data-name="&lt;Rectangle&gt;" class="play" x="2.24" y="88.61" width="16.72" height="3.53"/><rect id="_Rectangle_8" data-name="&lt;Rectangle&gt;" class="play" x="2.24" y="101.24" width="16.72" height="3.53"/><rect id="_Rectangle_9" data-name="&lt;Rectangle&gt;" class="play" x="2.24" y="113.87" width="16.72" height="3.53"/><rect id="_Rectangle_10" data-name="&lt;Rectangle&gt;" class="play" x="2.24" y="126.49" width="16.72" height="3.53"/><rect id="_Rectangle_11" data-name="&lt;Rectangle&gt;" class="play" x="2.24" y="139.12" width="16.72" height="3.53"/><path id="_Path_3" data-name="&lt;Path&gt;" class="play" d="M183.69,112.06a2.35,2.35,0,0,0-1.39-1.83,2.06,2.06,0,0,1-1.21-1.33,19.87,19.87,0,0,1-.33-2.16c0-.32,0-0.65,0-1-1.26-.19-1.27-0.19-1.18-1.16,0-.54.1-1.08,0.16-1.65A4.62,4.62,0,0,1,177,100.6c-0.47-.77-0.82-0.85-1.71-0.41l-0.41.19a1.86,1.86,0,0,1-1.05-1.07,12.7,12.7,0,0,0-.94-1.84,1.49,1.49,0,0,0-.81-0.52c-0.72-.2-1.47-0.31-2.19-0.46a7.81,7.81,0,0,0-.27-0.83,1.17,1.17,0,0,0-1.09-.78,1.1,1.1,0,0,0-1,.75c-0.15.29-.28,0.59-0.43,0.93-1.17-.57-2.25-1.08-3.31-1.62a5,5,0,0,0-2.06-.55c-3.33-.19-6.66-0.36-10-0.66a3.9,3.9,0,0,0-2.22.37v11l2.39-.19c1.79-.15,3.57-0.32,5.35-0.52a20.85,20.85,0,0,1,4.52.11l-0.64,1.7c2.37,0.67,3.28,2.38,4.14,4.09a31.57,31.57,0,0,1,2.39,7,1.27,1.27,0,0,1-.14.86,42.38,42.38,0,0,1-8.67,11.11,1.73,1.73,0,0,0-.77,1.44c0.18,1.93-1.24,3.07-2.94,4.07-0.5.3-1,.54-1.59,0.82l-0.55-.43c-0.8.38-1.68,0.69-1.11,1.7l-2.1.69-0.28-.29v20.91a17.05,17.05,0,0,0,1.94-1.06c1.74-1.16,3.47-2.35,5.06-3.64,3.74-3,7.39-6.15,11.09-9.22a7.1,7.1,0,0,0,1.58-1.94c0.87-1.47,1.79-2.91,2.81-4.31a4.19,4.19,0,0,1,1.7-1.37,2,2,0,0,0,1.21-1.15,38.93,38.93,0,0,1,6-9.79,2.71,2.71,0,0,0,.67-1.59c0.09-1,.24-2,0.41-3,0.12-.69.31-1.36,0.46-2,0.37-1.76.75-3.51,1.09-5.28A6,6,0,0,0,183.69,112.06Z" transform="translate(-130.19 -58.28)"/><rect id="_Rectangle_12" data-name="&lt;Rectangle&gt;" class="lines" x="98.31" y="9.17" width="108.59" height="2.5"/><rect id="_Rectangle_13" data-name="&lt;Rectangle&gt;" class="lines" x="294.83" y="9.17" width="108.59" height="2.5"/><path id="_Path_4" data-name="&lt;Path&gt;" class="ground" d="M543.7,148.06h1l0.1,1.7c0.45,0.08.47-.13,0.44-0.41-0.1-.84-0.17-1.69-0.29-2.53a26.16,26.16,0,0,1,.32-8.32,68.31,68.31,0,0,1,2.83-10.24,3.16,3.16,0,0,0,.07-2.45,3.11,3.11,0,0,1-.12-0.5c1-.19,1.05-0.9.94-1.72-0.17-1.23-.3-2.46-0.45-3.72a1.89,1.89,0,0,0,1-1.83c0-1.12-.17-2.23-0.27-3.34,0-.39-0.13-0.78-0.16-1.17a1.18,1.18,0,0,1,.11-0.78,1.49,1.49,0,0,0,.25-1.52,39.87,39.87,0,0,1-.41-7.43c0-.09,0-0.18,0-0.33a1.77,1.77,0,0,0,1.06-1.85c0.77-.15.77-0.15,1.14,0.64,0.61-.33,1.07-1.09,2-0.65V105c0.76-.46,1.29-1.16,2.23-0.72l2.07,3.47,1.54-.89c0.16,0.27.28,0.47,0.38,0.67a8.79,8.79,0,0,0,.42.91c1.23,1.92,1,4,.57,6.06a5.17,5.17,0,0,1-.31,1.14,3.49,3.49,0,0,0,0,2.79q5,15.23,10,30.47a7.57,7.57,0,0,1,.32,1.77,8.64,8.64,0,0,0,1.9,5.29,2.28,2.28,0,0,1,.41.89c0.34,1.25.66,2.51,1,3.83h1.48c0-.37.08-0.72,0.1-1.07,0.21-3.84.32-7.69,0.64-11.53,0.36-4.32.88-8.62,1.37-12.92a4,4,0,0,0-.23-2,1.69,1.69,0,0,1,.07-1.39A22.37,22.37,0,0,0,579.1,126a6,6,0,0,0-.13-2.69,25,25,0,0,1-.76-8.07l1-.2a6.11,6.11,0,0,0-.16-2.52c-0.12-.38-0.5-0.84.1-1.19A0.72,0.72,0,0,0,579,111c-0.69-1.95-.27-4-0.36-6a0.94,0.94,0,0,1,.26-0.65,0.6,0.6,0,0,0,0-.94,0.94,0.94,0,0,1-.19-0.63,56.91,56.91,0,0,0,.46-9.7c0-.21,0-0.42,0-0.66l2-.86,0.5,0.8,0.52-.81,0.19,0c0,0.58,0,1.16,0,1.74s0,1.15,0,1.73v1.8a8.23,8.23,0,0,0,4.77.95,9.41,9.41,0,0,0,1.5,3.44,1.83,1.83,0,0,1-.05,1.9,0.76,0.76,0,0,0-.15.74,9.1,9.1,0,0,1,.31,4.4c-0.35,3.44-.78,6.86-1.19,10.29s-0.79,6.68-1.19,10c0,0.33-.08.66-0.13,1a3.78,3.78,0,0,0,.13,2,3.73,3.73,0,0,1,.19,1.79c-0.14,1.2-.28,2.41-0.34,3.62a6.15,6.15,0,0,0,.16,1.88,6.65,6.65,0,0,1-.53,4.41,1.3,1.3,0,0,0-.13.65,9.27,9.27,0,0,1,.31,1.49,6.42,6.42,0,0,1-.38,1.49l0.54,1-1.07.22c0,0.2.07,0.37,0.13,0.54a11.38,11.38,0,0,1,0,5.48,2,2,0,0,1-.5,1,0.57,0.57,0,0,0,0,.93,0.93,0.93,0,0,1,.28.89c-0.24,6.09-.43,12.18-0.74,18.26-0.14,2.63-.52,5.24-0.83,7.86a8.47,8.47,0,0,1-.42,1.28,3.26,3.26,0,0,0-.16.87c0,2.12,0,4.24,0,6.37v1.08l-2.65.89c-0.2-.23-0.38-0.47-0.59-0.68a12.1,12.1,0,0,0-1-.91,0.64,0.64,0,0,0-.9,0c-0.24.22-.51,0.41-0.79,0.64a3.51,3.51,0,0,1-1.1-1.47c-0.92-1.95-1.88-3.87-2.67-5.87-2-5-4-9.89-5.66-15-1.24-3.82-2.89-7.44-4.4-11.14-0.81-2-1.39-4.07-2-6.12-0.88-2.86-1.71-5.74-2.59-8.69h-1.44a1,1,0,0,0,.06.48,1.42,1.42,0,0,1,.34,1.49c-0.14,1-.26,2-0.39,3.06a1,1,0,0,1-.1.44c-0.59.8-.25,1.59,0,2.41a1.78,1.78,0,0,1-.91,2.18,1.35,1.35,0,0,0,.06.32,3.25,3.25,0,0,1,0,2.8,1.68,1.68,0,0,0,.12,1.32,4.4,4.4,0,0,1-.23,3.7,4.06,4.06,0,0,0-.32,2.94,35.46,35.46,0,0,1,.31,5.89,1.34,1.34,0,0,1-.54,1.29,7.34,7.34,0,0,1,.49,3.85,2.83,2.83,0,0,1-.44.8c0.7,1.47.47,3.15,0.49,4.81,0,1.12,0,2.24,0,3.36a13.92,13.92,0,0,1-2.71,7.95,4.2,4.2,0,0,1-2.27,1.74,1.24,1.24,0,0,1-1.47-.36c-0.61-.7-1.31-1.33-2.13-2.16-0.3,2.19-.38,4.19-0.59,6.15-1.25.42-1.82,0.26-2.23-.61l-0.58.43a1.43,1.43,0,0,1-2.3-.38,10.93,10.93,0,0,1-1.23-2.82,6,6,0,0,1,.16-2.51,20.54,20.54,0,0,1,1-3.19,3.73,3.73,0,0,0,.28-1.94c-0.31-2.4-.6-4.81-0.91-7.21a1.67,1.67,0,0,1,.18-1,11.4,11.4,0,0,0,.76-2.41c0.2-.95.29-1.91,0.43-2.87a0.9,0.9,0,0,1,.61-1,6.58,6.58,0,0,1-.41-3.48l0.95-.1V169l-1-.13a21.06,21.06,0,0,1,.06-3.32,1.44,1.44,0,0,1,1.48-1.19v-0.83l-1.48-.09a8,8,0,0,1,.23-3.08,32.13,32.13,0,0,1,1-3.48,1.89,1.89,0,0,0,.08-1.4,6,6,0,0,1-.32-2.32c0-1.39,0-2.79,0-4.18v-0.93Z" transform="translate(-130.19 -58.28)"/><path id="_Path_5" data-name="&lt;Path&gt;" class="ground" d="M494.83,124.38a1.55,1.55,0,0,1-1-1.74c0.1-1.24.24-2.47,0.43-3.7,0.3-1.88.65-3.76,1-5.64a3.1,3.1,0,0,0-.12-1.78,3.7,3.7,0,0,1-.15-2c0.13-.84.2-1.68,0.3-2.53,0-.3.09-0.59,0.15-1h4.24c0.12-.87.19-1.65,0.33-2.42q0.4-2.19.88-4.36a3.23,3.23,0,0,1,.48-1.07,0.74,0.74,0,0,1,1.28,0,11.45,11.45,0,0,0,.86.94,9.69,9.69,0,0,0,1,.7v4.36l2.15,1c0,0.71.21,1.42-.44,1.9,0.09,0.84.64,1.56,0.39,2.49l-0.9-.64a1.46,1.46,0,0,1-.29.54,0.91,0.91,0,0,0-.26,1.06c0.15,1.66.29,3.32,0.42,5a3.55,3.55,0,0,1,0,.49c-1.42.3-1.76,1.42-2,2.64-0.07.42-.1,0.84-0.14,1.26a1.06,1.06,0,0,0,.26.91c0.38,0.41.32,0.55-.13,0.94a1.64,1.64,0,0,0-.64,1.57l1.62,0.14a3.51,3.51,0,0,1-.23,1.08,14.29,14.29,0,0,0-1.76,5.5c-0.35,2.3-.55,4.62-0.81,6.91a5.5,5.5,0,0,1,2.05,2.62,1.71,1.71,0,0,1,.1.79,6.44,6.44,0,0,1-.13,1.08c-0.5,2.39-.11,4.76.07,7.14,0.06,0.79.09,1.57,0.1,2.36,0,0.31.12,0.66-.36,0.82a1.77,1.77,0,0,0-.21.79,1.57,1.57,0,0,1,1.63,1.28,0.51,0.51,0,0,1-.46.67c0.32,1.07.64,2.1,0.93,3.15,0.72,2.66,1.42,5.33,2.12,8a0.72,0.72,0,0,0,.47.7,0.59,0.59,0,0,1,.2.44c0,0.39,0,.78,0,1.22l-1,.16c0.16,0.31.3,0.57,0.44,0.82a9.9,9.9,0,0,0,.61,1c0.78,1,1.25,2.13.55,3.41a0.69,0.69,0,0,0,0,.26,27.33,27.33,0,0,0,5.11,3.17,9.06,9.06,0,0,0,2.47.48,1.38,1.38,0,0,0,.9-0.33c1.28-1,2.51-2.15,3.81-3.17a4,4,0,0,0,1.17-1.58,48.78,48.78,0,0,0,2.91-8.59,1,1,0,0,1,.62-1.1,1.12,1.12,0,0,0,.15-0.66c0.09-1.45.14-2.91,0.26-4.35a34.94,34.94,0,0,1,2.06-9.38,5.29,5.29,0,0,0,.19-2.59l-0.8-.34a7.92,7.92,0,0,1,.08-0.79c0.43-2.2.88-4.39,1.29-6.6a3.3,3.3,0,0,0,0-1.33,43.8,43.8,0,0,1-.91-10.3,0.9,0.9,0,0,1,.13-0.6,1.16,1.16,0,0,0,.17-1.41c-0.75-3.06-1.51-6.12-2.25-9.18a5.46,5.46,0,0,1-.18-1.25q0-6.23,0-12.46c0-.21,0-0.42.05-0.69,0.77-.27,1.53-0.55,2.31-0.78a0.94,0.94,0,0,1,.64.16,5.67,5.67,0,0,1,.7.57l1.58-.94,0.64,1.76a0.77,0.77,0,0,0,.28-0.12c0.59-.77,1.22-0.53,1.91-0.13a4.57,4.57,0,0,1,2.61,3.6,1.07,1.07,0,0,0,.14.52,9.51,9.51,0,0,1,1.55,4.23c0.56,3.16,1,6.34,1.47,9.52a5.88,5.88,0,0,1-.1,1.62c-0.27,1.89-.56,3.77-0.83,5.66a4.05,4.05,0,0,0,0,.73l0.9,0.16a6.8,6.8,0,0,1-.24,2.84,1.51,1.51,0,0,0,.2,1.69,1.2,1.2,0,0,1,.08.78c-0.15,2.45-.31,4.9-0.47,7.35q-0.25,3.9-.49,7.8a2.17,2.17,0,0,0,.07.81,8.26,8.26,0,0,1,.14,4.13c-1.39,8.24-2.79,16.49-4.1,24.74A21.75,21.75,0,0,1,533.4,183a57.57,57.57,0,0,1-3.78,7.14,20.9,20.9,0,0,1-3.19,4,7.93,7.93,0,0,1-3.4,2,0.93,0.93,0,0,0-.67.53,9.3,9.3,0,0,1-1.93,2.39c-1.14,1.14-2.56,1.92-3.74,3a3.18,3.18,0,0,1-1,.47,11.13,11.13,0,0,1-5.11.22,9.86,9.86,0,0,0-1.63-.05,1.37,1.37,0,0,1-1.49-.93l-0.71-1.68c-0.61.23-.95,0.93-1.71,0.76s-0.85-.84-1-1.51a4.47,4.47,0,0,1-2.44-2.48c-0.69-1.35-1.49-2.63-2.17-4a19.42,19.42,0,0,1-2.13-6.69,61.73,61.73,0,0,0-1.32-8.25,19,19,0,0,1-.47-3.68c-0.12-2.45-.11-4.9-0.2-7.36,0-1.21-.18-2.41-0.27-3.62,0-.36-0.07-0.72-0.07-1.09q0-3.68,0-7.36a13.4,13.4,0,0,0-.46-3.78,1.14,1.14,0,0,1,.24-1.26,0.92,0.92,0,0,0,.1-0.66c-0.28-2.41-.57-4.81-0.87-7.22a91.71,91.71,0,0,1-.63-13.7,2.69,2.69,0,0,1,.26-0.95C493.94,126.36,494.37,125.42,494.83,124.38Z" transform="translate(-130.19 -58.28)"/><path id="_Path_6" data-name="&lt;Path&gt;" class="ground" d="M368.9,149a20.87,20.87,0,0,0-6.73.79,6.69,6.69,0,0,0-4.56,3.67h-4.69a8,8,0,0,0-3.14-3.9A1.69,1.69,0,0,1,349,148a16.92,16.92,0,0,1,.36-3.88,1.52,1.52,0,0,1,.08-0.35,7.79,7.79,0,0,0,.67-4.07c0-.24,0-0.48,0-0.78l2.71-.33a51.63,51.63,0,0,0,12.26-2.91l0.09,0a1.22,1.22,0,0,1,1.82.25,1.18,1.18,0,0,0,.28.18c3-2.39,6.51-2.59,10.2-2.66,0.07,1.38,1,1.76,2.12,1.83a3.18,3.18,0,0,1-.52,2.7,31.64,31.64,0,0,0-1.77,2.75,1.11,1.11,0,0,0,.12,1.55c0.4,0.41.69,0.93,1.08,1.35a2.33,2.33,0,0,1,.61,1.82,52.15,52.15,0,0,1-1.3,10.17c-0.66,2.73-1.51,5.42-2.23,8.14-0.6,2.28-1.14,4.58-1.69,6.88-1.09,4.53-2.13,9.08-3.28,13.6a36.52,36.52,0,0,1-3.47,8.76,21.07,21.07,0,0,1-3.69,4.93,13.46,13.46,0,0,1-9.13,3.93,8.58,8.58,0,0,1-3.79-.79,21.21,21.21,0,0,1-4.48-2.76,50.53,50.53,0,0,1-6.64-6.2c-2.11-2.34-4.14-4.75-6.19-7.15a5.06,5.06,0,0,1-.68-1.07,28,28,0,0,1-2.95-12.72c0-4.4.06-8.79,0.14-13.18,0-1.57.22-3.14,0.36-4.71a2.59,2.59,0,0,1,.27-1.14,1.4,1.4,0,0,0,0-1.38,2.66,2.66,0,0,1,0-1.67c0.37-1.53.67-3.08,0.9-4.63,0.2-1.32.27-2.65,0.37-4a0.58,0.58,0,0,1,.52-0.7,1.82,1.82,0,0,0-.07-0.39,5.23,5.23,0,0,1,.06-3.88,133.74,133.74,0,0,1,6.07-16.54,50.58,50.58,0,0,1,4.05-7.31,3.47,3.47,0,0,0,.37-1.08,5.17,5.17,0,0,0,.07-0.72,3.39,3.39,0,0,1,1.1-2.3,31.61,31.61,0,0,0,4.68-5.42c1.2-1.71,2.42-3.41,3.68-5.17l3,0.72c0.84,0.2.79,0.15,1.35-.46a5.72,5.72,0,0,1,1.51-1.11c0.66-.35,1.39-0.59,2.19-0.91a17.83,17.83,0,0,1,1.06,2.64,1.42,1.42,0,0,1-.12.61l-0.43,2,0.21,0a7.85,7.85,0,0,1,.82,1.34A3.51,3.51,0,0,1,362,103c0,0.51-.55.5-0.81,0.77a22.12,22.12,0,0,0-2.28,2.45c-1.51,2.2-3,4.41-4.3,6.74-2.22,4-4.19,8.2-6.4,12.24-2.12,3.87-3.23,8.08-4.4,12.28-0.21.75-.42,1.51-0.64,2.28l-1,.1a1.52,1.52,0,0,0,0,.45,3.76,3.76,0,0,1,0,2.82c-0.56,1.82-1.07,3.66-1.59,5.5a1.3,1.3,0,0,0,0,.78,6.51,6.51,0,0,1,.2,3.4c-0.24,2-.49,4-0.75,6.14a1.69,1.69,0,0,1,.92,1.72,1,1,0,0,1-.1.61c-0.54.48-.2,1-0.12,1.5a8.17,8.17,0,0,1,.17,1.88c-0.1,1.39-.3,2.77-0.46,4.19a4.11,4.11,0,0,1,2.05,2.45,37.43,37.43,0,0,1,2,6.69,2.2,2.2,0,0,0,.69,1.31,4.06,4.06,0,0,1,.76,1.32c0.17,0.35.28,0.72,0.5,1.27l0.62-1a11.44,11.44,0,0,1,3.51,1.7,3,3,0,0,1,2.12-1.72,21.35,21.35,0,0,1,3.08-.78,2.73,2.73,0,0,0,2-1.16,34.68,34.68,0,0,0,2-3.25,16.43,16.43,0,0,1,1.61-2.52,70.87,70.87,0,0,0,5.76-8.28c0.8-1.39,1.49-2.84,2.16-4.3a9.47,9.47,0,0,0,.71-5.34c-0.27-2-.62-4-0.93-5.92A1.86,1.86,0,0,0,368.9,149Z" transform="translate(-130.19 -58.28)"/><path id="_Compound_Path_2" data-name="&lt;Compound Path&gt;" class="ground" d="M487.77,139.75a13.61,13.61,0,0,1,.29-1.44,21.34,21.34,0,0,0,1.27-8.28,117.83,117.83,0,0,0-2.26-16,24.92,24.92,0,0,0-2.71-7.86l-4.85-7.9a2.33,2.33,0,0,0-.31-0.33l-1.08.82c-1.47-1-3-2-3.91-3.68l-1.52.92a47.68,47.68,0,0,0-11.17-2.61,1.84,1.84,0,0,0-1,.1,45.38,45.38,0,0,0-8.27,4.73,21.21,21.21,0,0,0-2.29,2.06,5.14,5.14,0,0,0-1.45,2.78,2.37,2.37,0,0,1-.45.87c-1.13,1.65-2.31,3.27-3.42,4.93a10.42,10.42,0,0,0-1.48,3.2,2.14,2.14,0,0,1-.67,1.23,1.07,1.07,0,0,0-.51.85,8.3,8.3,0,0,1-.27,1.24c-0.34,1-.75,1.92-1.09,2.89a34.13,34.13,0,0,0-1.75,10.54c-0.07,2.73,0,5.46,0,8.18a7.68,7.68,0,0,0,.34,3.14,0.6,0.6,0,0,1-.08.55,0.57,0.57,0,0,0-.21.72c0.38,3,.76,5.95,1.18,8.92a15.51,15.51,0,0,0,.63,2.74,4.81,4.81,0,0,1,.29,1.49,41.19,41.19,0,0,0,1.43,10.14,47.32,47.32,0,0,0,9,17.21,7.14,7.14,0,0,0,3.2,2.38,28,28,0,0,1,9.27,5.44,2.49,2.49,0,0,0,.37.22c0.53-1.19.33-2.42,0.48-3.62,0.62-.27,1.23-0.52,1.84-0.8a18.24,18.24,0,0,0,5.59-3.68,7.82,7.82,0,0,0,2.55-4.8,3.87,3.87,0,0,1,1.86-3.07c0.1-.07.18-0.17,0.28-0.23a4.87,4.87,0,0,0,1.87-2.68c0.63-1.8,1.4-3.55,2.15-5.3a2.64,2.64,0,0,1,.82-1.17,3.24,3.24,0,0,0,1.14-1.48,17.17,17.17,0,0,0,.75-1.75q2.34-6.88,4.63-13.78a1.8,1.8,0,0,0,0-1c-0.26-1-.57-2-0.85-3a7.57,7.57,0,0,0,1.54-3.68Zm-10.06-.84a0.84,0.84,0,0,0-.44.92c-0.08,1.18-.13,2.36-0.19,3.54-0.12,2.33-.13,4.67-0.38,7a28.84,28.84,0,0,1-4.39,13,22.68,22.68,0,0,1-7.52,7.13,1.09,1.09,0,0,1-1.24.07c-1.46-.81-3-1.53-4.42-2.33a2,2,0,0,1-.69-0.78c-1.27-2.35-2.48-4.72-3.77-7.05a17.41,17.41,0,0,0-2.71-4.07,0.55,0.55,0,0,1,.09-0.87,0.54,0.54,0,0,0,0-.92,1,1,0,0,1-.28-0.81q-0.15-1.35-.33-2.7a3.62,3.62,0,0,0-.17-0.61,3,3,0,0,0-2.68-2.4l-0.07-.82,1.58-.09v-2.61l-1-.12a37.27,37.27,0,0,1,.45-8.17,4.63,4.63,0,0,0-1.19.14,4.43,4.43,0,0,0-.93.74l-0.53-1.73a3.6,3.6,0,0,0,1.87-2,29.91,29.91,0,0,0,1.73-4.19c0.31-1.09.45-2.24,0.85-3.31a5.21,5.21,0,0,1,.26-0.67c0.82-1.52,1.63-3,2.48-4.55,0.37-.65.83-1.26,1.31-2l-0.92-2.44c0.9-.48,1.38.22,2,0.69l0.14-1.71c0.67,0,1.3,0,1.93,0a1.27,1.27,0,0,0,1.17-.54c0.29-.37.62-0.71,1.06-1.21l0.11,1.7c0.6,0,1.17,0,1.73,0a0.85,0.85,0,0,0,.76-0.68c0.1-.31.16-0.64,0.26-1,0.28,0.09.53,0.19,0.79,0.24a19.25,19.25,0,0,0,2.75.52,5.35,5.35,0,0,1,4.21,2.18,16,16,0,0,1,1.62,2.72,24.23,24.23,0,0,1,1.83,6.17,1.72,1.72,0,0,0,1.55,1.64c0.35,0.07.7,0.11,1.13,0.18a6.78,6.78,0,0,0-.45,3.5,2,2,0,0,1,1.15,1.78c0.19,1.65.31,3.31,0.38,5A1.38,1.38,0,0,1,477.71,138.92Z" transform="translate(-130.19 -58.28)"/><path id="_Compound_Path_3" data-name="&lt;Compound Path&gt;" class="ground" d="M435.74,152.19l-10.4-5.6c-0.2-.11-0.42-0.19-0.61-0.27l-0.48.78c-0.4-.92-0.75-1.74-1.11-2.55a2.56,2.56,0,0,0-1.82-1.46,35,35,0,0,1-7.44-2.89,19.79,19.79,0,0,1-2.81-2,2.61,2.61,0,0,1-1-2c1.91-.69,3.21-2.15,4.59-3.5a2.37,2.37,0,0,0,.43-0.69,16.92,16.92,0,0,1,2.81-4.62,23.26,23.26,0,0,0,3.51-5.29,18.53,18.53,0,0,0,2-6.09c0-.22.07-0.45,0.11-0.74l1,0.59c0.19-.8.41-1.53,0.52-2.28a3.07,3.07,0,0,0-.92-3.15,7.89,7.89,0,0,1,.21-0.76,5.46,5.46,0,0,0,.25-2.24,0.8,0.8,0,0,0-.13-0.5,10.27,10.27,0,0,1-2.11-3.57,6.47,6.47,0,0,0-1.77-2.38c-0.55-.47-1.12-0.93-1.72-1.34a46.48,46.48,0,0,0-8.37-4.36,1.24,1.24,0,0,0-.69-0.07c-2.52.51-5,1-7.56,1.57a1.49,1.49,0,0,1-1.41-.33,1.56,1.56,0,0,0-1.78-.23c-0.69.32-1.39,0.6-2.07,0.94-1.57.8-3.12,1.62-4.71,2.45A5.92,5.92,0,0,1,389,94.24h-3.16c0.27,1.41.46,2.76,0.8,4.07a4.75,4.75,0,0,1-.25,3l-3.79.19c0.13,1.32.25,2.58,0.39,3.84,0.4,3.64.78,7.29,1.22,10.93s0.91,7.33,1.4,11a5,5,0,0,1-.17,2.84,1.81,1.81,0,0,0,0,1.59,6.7,6.7,0,0,0,.91,1.09,9.33,9.33,0,0,1-.27,1.38,3,3,0,0,0,.05,2.12,1.49,1.49,0,0,1,.07,1.23,3.37,3.37,0,0,0,0,2.81,10.16,10.16,0,0,1,.32,1c0.14,0.5.46,1-.12,1.48a1,1,0,0,0-.08.52,5,5,0,0,0,.3,2.05,1.09,1.09,0,0,1,0,.75,2,2,0,0,0,.6,2.82,28.18,28.18,0,0,0,0,9.62,8.57,8.57,0,0,0-.32,1.54c0,2.27,0,4.54,0,6.81q0,4.59,0,9.18c0,0.25,0,.51.05,0.77,0.59-.12.79-0.91,1.57-0.6,0,0.27,0,.57,0,0.86,0,1.24,0,2.49,0,3.73a1.63,1.63,0,0,0,1,1.82,0.88,0.88,0,0,1-.07.39,1.81,1.81,0,0,0-.26,1.93c0.25,1,.52,1.92.78,2.89a1.57,1.57,0,0,0-.37.92c0.12,2.18.24,4.36,0.43,6.53a22.26,22.26,0,0,0,.54,2.85,0.86,0.86,0,0,0,.66.79,1,1,0,0,0,1.08-.52,5.61,5.61,0,0,0,.57-1c0.29-.76.55-1.54,0.78-2.32,0.31-1.08.24-1.2-.92-1.76,0.23-1.24.45-2.45,0.68-3.67a0.87,0.87,0,0,1,.85-0.79,2.23,2.23,0,0,0,1.69-1.11,5.54,5.54,0,0,0,.75-1.54,18.24,18.24,0,0,0,.69-3.55c0.15-3,.14-5.94.21-8.9a2.2,2.2,0,0,0-1-2.23,10.26,10.26,0,0,0,.45-1.9,15.11,15.11,0,0,0-.36-4.87,1.32,1.32,0,0,1-.06-0.7,16.74,16.74,0,0,0,.45-5.05c0-.31,0-0.63,0-1l1,0.4,17.39,7.18c1.58,0.65,1.58.65,3.08-.16a1.85,1.85,0,0,0,1.82,1.59,2.18,2.18,0,0,0,2.31-.68c3.21,1.43,6.58,1.85,9.89,2.55,0.44-.6.84-1.13,1.22-1.68,0.22-.32.4-0.68,0.61-1,0.51-.78.08-1.51-0.08-2.27a1.39,1.39,0,0,0-1-.87c-1.46-.86-2.94-1.69-4.36-2.61a6.92,6.92,0,0,1-1.46-1.47,1.83,1.83,0,0,1-.28-1.75c0.82,0.34,1.56.67,2.33,0.94s1.55,0.47,2.36.71a3.93,3.93,0,0,0,.24-0.66,1.77,1.77,0,0,1,1.38-1.55,3.84,3.84,0,0,0,2.68-3.27C436.5,152.65,436.47,152.58,435.74,152.19Zm-30.93-25A46.06,46.06,0,0,1,400,133.4a25.76,25.76,0,0,1-2.36,2.12,2.17,2.17,0,0,1-1.56.56c0-.24-0.07-0.46-0.09-0.69-0.31-4.63-.61-9.25-1-13.88-0.09-1.27-.33-2.52-0.52-3.78a2.87,2.87,0,0,0-.31-1.13,2.14,2.14,0,0,1-.14-2,5,5,0,0,0,0-3.29,0.84,0.84,0,0,1,.14-0.92,1.47,1.47,0,0,0,.18-0.86c0-1.12,0-2.24,0-3.36,0-.3,0-0.6,0-1,0.31,0,.56-0.08.82-0.1a5.56,5.56,0,0,0,3-1,10.76,10.76,0,0,1,1.47-.69q1.74-.87,3.47-1.78a15.62,15.62,0,0,1,3.85-1,2.1,2.1,0,0,1,.89.09,12.16,12.16,0,0,1,1.49.41,1.71,1.71,0,0,0,2-.25,0.94,0.94,0,0,1,1.24-.07,25.21,25.21,0,0,1,5.19,4,13.94,13.94,0,0,1,1.75,2.31,5.61,5.61,0,0,1,.56,4.21c-0.36-.39-0.7-0.72-1-1.09a1.33,1.33,0,0,0-1.16-.55c-0.89,0-1.79-.09-2.37.89-0.31-.46-0.43-1.05-1.2-0.78a1.15,1.15,0,0,0,.13.6,0.91,0.91,0,0,1,.23,1.15,24.6,24.6,0,0,1-1.13,3.06,28.52,28.52,0,0,1-3.76,5.67A84.15,84.15,0,0,0,404.81,127.22Z" transform="translate(-130.19 -58.28)"/><path id="_Compound_Path_4" data-name="&lt;Compound Path&gt;" class="ground" d="M642.76,122.63c-0.23-.59-0.45-1.19-0.68-1.78a5.92,5.92,0,0,0-.38-0.82,4.82,4.82,0,0,1-1-2,1.46,1.46,0,0,0-.37-0.61q-4.73-6.34-9.47-12.68a3.48,3.48,0,0,0-.76-0.77,56,56,0,0,0-7.79-4.66,25.87,25.87,0,0,0-5.89-2.09,6.18,6.18,0,0,0-4.17.25,7.45,7.45,0,0,1-1,.33L610.82,97a81.69,81.69,0,0,1-11,1.79l-0.3-1.33a15.77,15.77,0,0,0-1.39-3.93A7.44,7.44,0,0,0,596,90.87a1.12,1.12,0,0,0-.72-0.25,3,3,0,0,0-1.84,2.44c0.08,1.76.18,3.51,0.26,5.27s0.15,3.26.22,4.91l-0.49.12c-1.3.3-1.63,0.72-1.65,2.08a12.74,12.74,0,0,0,.39,3.69,2.13,2.13,0,0,1,0,1.15,9.7,9.7,0,0,0-.36,3l1,0.23a1.41,1.41,0,0,1,0,.24,9.05,9.05,0,0,0,0,5.53,1.23,1.23,0,0,1,0,.6c-0.24,1.09-.52,2.17-0.74,3.26a4.68,4.68,0,0,0-.09,1.53c0.21,1.47.51,2.92,0.73,4.39a48.43,48.43,0,0,1,.81,7.77c0,1.58,0,3.15,0,4.73,0,0.3,0,.59,0,0.91l1,0.17c0,0.21,0,.36,0,0.51a41.88,41.88,0,0,0,.49,8.06,0.73,0.73,0,0,1-.39.83,1.31,1.31,0,0,0-.6,1.46q0.54,5.79,1,11.59a7,7,0,0,1-.19,2,6.81,6.81,0,0,0-.24,2.6q0.94,5.55,1.89,11.11c0,0.23,0,.46.09,0.81l-0.86-.51a1.45,1.45,0,0,0,.13,1.25,10.72,10.72,0,0,1,.87,4.33c0,0.82,0,1.64,0,2.45a24.27,24.27,0,0,0,1.05,6.53A6.43,6.43,0,0,0,599.1,198a3.3,3.3,0,0,0,4,.6,9.12,9.12,0,0,1,3.09-1.41,0.65,0.65,0,0,0,.31-0.18,3.81,3.81,0,0,0,1.3-1.93,2.91,2.91,0,0,1,.74-1.31c2.55-3,5.13-6,7.63-9a37.59,37.59,0,0,0,4.39-6.46,17.43,17.43,0,0,0,1.23-3.11,7.07,7.07,0,0,1,.73-1.73c2.59-4.26,5.37-8.43,6.48-13.47l0.92,0.63a8.93,8.93,0,0,0,0-1,1.68,1.68,0,0,1,.38-1.17,32.48,32.48,0,0,0,4.3-8.08,1.88,1.88,0,0,1,.37-0.72,7,7,0,0,0,2-4.84,2.74,2.74,0,0,1,.32-1c0.71-1.37,1.51-2.7,2.17-4.1a23.44,23.44,0,0,0,2.34-8.26,5.5,5.5,0,0,1,1-3.42,1.18,1.18,0,0,0,.19-0.51A8.34,8.34,0,0,0,642.76,122.63Zm-14.31,7.07a65.74,65.74,0,0,1-4.14,16.15,26.75,26.75,0,0,1-1.08,2.5c-2.94,5.57-5.57,11.29-8.54,16.84s-6,11.09-9,16.63c-0.49.9-.51,0.89-1.66,0.74,0.1-1,.16-1.85.29-2.74q0.36-2.43.8-4.84a3.86,3.86,0,0,0-.27-1.68c-0.06-.26-0.29-0.57.17-0.76a0.76,0.76,0,0,0,.1-0.56c-0.24-2.17-.51-4.33-0.75-6.5q-0.65-5.69-1.28-11.38a0.83,0.83,0,0,1,.07-0.59,1.47,1.47,0,0,0,.3-1.6c-0.23-1.37-.48-2.74-0.71-4.12-0.1-.63-0.19-1.26-0.23-1.89a1.06,1.06,0,0,1,.21-0.72,1,1,0,0,0,.21-1.09,6.41,6.41,0,0,1-.16-3.92,26.67,26.67,0,0,0,0-6.71c-0.24-3.41-.52-6.83-0.86-10.23-0.21-2.14-.54-4.27-0.85-6.39a4.2,4.2,0,0,1,.09-1.61,7,7,0,0,0,.21-2c-0.07-1.36-.22-2.72-0.39-4.07a1.5,1.5,0,0,1,.77-1.6,12.36,12.36,0,0,1,4.28-1.45,1,1,0,0,1,.58.16c0.24,0.12.46,0.29,0.69,0.44a0.69,0.69,0,0,0,1-.09,1.5,1.5,0,0,1,1.72-.36,65.88,65.88,0,0,1,9,2.79,7.34,7.34,0,0,1,2.27,1.46,29.17,29.17,0,0,1,5,5.88,15.64,15.64,0,0,1,2.62,8.48A41,41,0,0,1,628.45,129.7Z" transform="translate(-130.19 -58.28)"/><g id="_Group_" data-name="&lt;Group&gt;"><path id="_Compound_Path_5" data-name="&lt;Compound Path&gt;" class="the" d="M362.15,77.15H360V60.23h-4.55v-2h11.26v2h-4.6V77.15Z" transform="translate(-130.19 -58.28)"/><path id="_Compound_Path_6" data-name="&lt;Compound Path&gt;" class="the" d="M385.77,65.93V58.28h2.1V77.15h-2.1V67.89h-9.66v9.26H374V58.28h2.1v7.66h9.66Z" transform="translate(-130.19 -58.28)"/><path id="_Compound_Path_7" data-name="&lt;Compound Path&gt;" class="the" d="M396.79,58.28h9.79v2h-7.68v5.61h7.46v2h-7.46v7.41h7.68v2h-9.79V58.28Z" transform="translate(-130.19 -58.28)"/></g></svg>